<?xml version="1.0" encoding="UTF-8"?>
<svg width="752pt" height="752pt" version="1.1" viewBox="0 0 752 752" xmlns="http://www.w3.org/2000/svg">
 <path d="m515.45 206.57-196.27 29.469c-3.1562 0.52734-5.2617 3.1562-5.2617 6.3125v18.941 10.523 11.051 10.523 185.22c-10.523-5.2617-24.73-6.8398-39.992-5.7891-31.57 2.1055-48.41 15.785-46.305 40.516 1.5781 24.73 20.523 35.781 52.094 33.676 31.047-2.1055 55.25-15.785 54.199-39.465v-0.52734-199.43c0-3.1562 2.6328-5.7891 5.2617-6.3125l156.28-23.68c3.1562-0.52734 5.2617 1.5781 5.2617 4.7344v159.96c-10.523-5.2617-24.73-6.8398-39.992-5.7891-31.57 2.1055-48.41 15.785-46.305 40.516 1.5781 24.73 20.523 35.781 52.094 33.676 31.047-2.1055 55.777-16.312 54.199-40.516v-0.52734-206.79-7.8945-7.8945-35.254c0-3.6797-2.6328-5.7852-5.2617-5.2578z" fill="#1794fd"/>
</svg>
